solid camera_top
facet normal -0.0 -0.0 1.0
  outer loop
    vertex 62.182676320863415 137.7895438981692 0.0
    vertex 63.88267632086341 139.4895438981692 0.0
    vertex 62.182676320863415 164.7895438981692 0.0
  endloop
endfacet
facet normal -0.0 -0.0 1.0
  outer loop
    vertex 63.88267632086341 139.4895438981692 0.0
    vertex 62.182676320863415 137.7895438981692 0.0
    vertex 90.38267632086341 137.7895438981692 0.0
  endloop
endfacet
facet normal -0.0 -0.0 1.0
  outer loop
    vertex 63.88267632086341 139.4895438981692 0.0
    vertex 90.38267632086341 137.7895438981692 0.0
    vertex 88.68267632086341 139.4895438981692 0.0
  endloop
endfacet
facet normal -0.0 -0.0 1.0
  outer loop
    vertex 88.68267632086341 139.4895438981692 0.0
    vertex 90.38267632086341 137.7895438981692 0.0
    vertex 88.68267632086341 163.0895438981692 0.0
  endloop
endfacet
facet normal -0.0 -0.0 1.0
  outer loop
    vertex 88.68267632086341 163.0895438981692 0.0
    vertex 84.7826763208634 164.7895438981692 0.0
    vertex 84.7826763208634 163.0895438981692 0.0
  endloop
endfacet
facet normal -0.0 -0.0 1.0
  outer loop
    vertex 84.7826763208634 164.7895438981692 0.0
    vertex 88.68267632086341 163.0895438981692 0.0
    vertex 90.38267632086341 164.7895438981692 0.0
  endloop
endfacet
facet normal -0.0 -0.0 1.0
  outer loop
    vertex 90.38267632086341 164.7895438981692 0.0
    vertex 88.68267632086341 163.0895438981692 0.0
    vertex 90.38267632086341 137.7895438981692 0.0
  endloop
endfacet
facet normal -0.0 -0.0 1.0
  outer loop
    vertex 62.182676320863415 164.7895438981692 0.0
    vertex 63.88267632086341 163.0895438981692 0.0
    vertex 67.78267632086342 164.7895438981692 0.0
  endloop
endfacet
facet normal -0.0 -0.0 1.0
  outer loop
    vertex 63.88267632086341 163.0895438981692 0.0
    vertex 62.182676320863415 164.7895438981692 0.0
    vertex 63.88267632086341 139.4895438981692 0.0
  endloop
endfacet
facet normal -0.0 -0.0 1.0
  outer loop
    vertex 67.78267632086342 164.7895438981692 0.0
    vertex 63.88267632086341 163.0895438981692 0.0
    vertex 67.78267632086342 163.0895438981692 0.0
  endloop
endfacet
facet normal 1.0 0.0 0.0
  outer loop
    vertex 90.38267632086341 164.7895438981692 -0.9999999999999999
    vertex 90.38267632086341 137.7895438981692 0.0
    vertex 90.38267632086341 137.7895438981692 -0.9999999999999999
  endloop
endfacet
facet normal 1.0 0.0 0.0
  outer loop
    vertex 90.38267632086341 137.7895438981692 0.0
    vertex 90.38267632086341 164.7895438981692 -0.9999999999999999
    vertex 90.38267632086341 164.7895438981692 0.0
  endloop
endfacet
facet normal -0.0 -1.0 -0.0
  outer loop
    vertex 90.38267632086341 137.7895438981692 0.0
    vertex 62.182676320863415 137.7895438981692 -0.9999999999999999
    vertex 90.38267632086341 137.7895438981692 -0.9999999999999999
  endloop
endfacet
facet normal -0.0 -1.0 -0.0
  outer loop
    vertex 62.182676320863415 137.7895438981692 -0.9999999999999999
    vertex 90.38267632086341 137.7895438981692 0.0
    vertex 62.182676320863415 137.7895438981692 0.0
  endloop
endfacet
facet normal -1.0 0.0 0.0
  outer loop
    vertex 62.182676320863415 164.7895438981692 0.0
    vertex 62.182676320863415 137.7895438981692 -0.9999999999999999
    vertex 62.182676320863415 137.7895438981692 0.0
  endloop
endfacet
facet normal -1.0 0.0 0.0
  outer loop
    vertex 62.182676320863415 137.7895438981692 -0.9999999999999999
    vertex 62.182676320863415 164.7895438981692 0.0
    vertex 62.182676320863415 164.7895438981692 -0.9999999999999999
  endloop
endfacet
facet normal -0.0 1.0 -0.0
  outer loop
    vertex 67.78267632086342 164.7895438981692 4.8
    vertex 84.7826763208634 164.7895438981692 0.0
    vertex 67.78267632086342 164.7895438981692 0.0
  endloop
endfacet
facet normal -0.0 1.0 -0.0
  outer loop
    vertex 84.7826763208634 164.7895438981692 0.0
    vertex 67.78267632086342 164.7895438981692 4.8
    vertex 84.7826763208634 164.7895438981692 4.8
  endloop
endfacet
facet normal -0.0 1.0 -0.0
  outer loop
    vertex 62.182676320863415 164.7895438981692 0.0
    vertex 90.38267632086341 164.7895438981692 -0.9999999999999999
    vertex 62.182676320863415 164.7895438981692 -0.9999999999999999
  endloop
endfacet
facet normal -0.0 1.0 -0.0
  outer loop
    vertex 90.38267632086341 164.7895438981692 -0.9999999999999999
    vertex 62.182676320863415 164.7895438981692 0.0
    vertex 90.38267632086341 164.7895438981692 0.0
  endloop
endfacet
facet normal -0.0 1.0 -0.0
  outer loop
    vertex 90.38267632086341 164.7895438981692 0.0
    vertex 62.182676320863415 164.7895438981692 0.0
    vertex 67.78267632086342 164.7895438981692 0.0
  endloop
endfacet
facet normal -0.0 1.0 -0.0
  outer loop
    vertex 90.38267632086341 164.7895438981692 0.0
    vertex 67.78267632086342 164.7895438981692 0.0
    vertex 84.7826763208634 164.7895438981692 0.0
  endloop
endfacet
facet normal 0.0 0.0 -1.0
  outer loop
    vertex 62.182676320863415 164.7895438981692 -0.9999999999999999
    vertex 72.33153683210419 156.44326085737427 -1.000000000000003
    vertex 62.182676320863415 137.7895438981692 -0.9999999999999999
  endloop
endfacet
facet normal 0.0 0.0 -1.0
  outer loop
    vertex 72.33153683210419 156.44326085737427 -1.000000000000003
    vertex 62.182676320863415 164.7895438981692 -0.9999999999999999
    vertex 73.02359161220285 157.39250488112967 -1.000000000000003
  endloop
endfacet
facet normal 0.0 0.0 -1.0
  outer loop
    vertex 73.02359161220285 157.39250488112967 -1.000000000000003
    vertex 62.182676320863415 164.7895438981692 -0.9999999999999999
    vertex 73.9377476293046 158.13028724178176 -1.000000000000003
  endloop
endfacet
facet normal 0.0 0.0 -1.0
  outer loop
    vertex 73.9377476293046 158.13028724178176 -1.000000000000003
    vertex 62.182676320863415 164.7895438981692 -0.9999999999999999
    vertex 75.0117066615582 158.60632929069516 -1.000000000000003
  endloop
endfacet
facet normal 0.0 0.0 -1.0
  outer loop
    vertex 75.0117066615582 158.60632929069516 -1.000000000000003
    vertex 62.182676320863415 164.7895438981692 -0.9999999999999999
    vertex 90.38267632086341 164.7895438981692 -0.9999999999999999
  endloop
endfacet
facet normal 0.0 0.0 -1.0
  outer loop
    vertex 62.182676320863415 137.7895438981692 -0.9999999999999999
    vertex 72.33153683210419 156.44326085737427 -1.000000000000003
    vertex 71.90874567859773 155.34724458203462 -1.000000000000003
  endloop
endfacet
facet normal 0.0 0.0 -1.0
  outer loop
    vertex 62.182676320863415 137.7895438981692 -0.9999999999999999
    vertex 71.90874567859773 155.34724458203462 -1.000000000000003
    vertex 71.78403067009953 154.17914775302256 -1.000000000000003
  endloop
endfacet
facet normal 0.0 0.0 -1.0
  outer loop
    vertex 75.0117066615582 158.60632929069516 -1.000000000000003
    vertex 90.38267632086341 164.7895438981692 -0.9999999999999999
    vertex 76.17228017571676 158.78818954893308 -1.000000000000003
  endloop
endfacet
facet normal 0.0 0.0 -1.0
  outer loop
    vertex 76.17228017571676 158.78818954893308 -1.000000000000003
    vertex 90.38267632086341 164.7895438981692 -0.9999999999999999
    vertex 77.34037700472882 158.66347454043486 -1.000000000000003
  endloop
endfacet
facet normal 0.0 0.0 -1.0
  outer loop
    vertex 77.34037700472882 158.66347454043486 -1.000000000000003
    vertex 90.38267632086341 164.7895438981692 -0.9999999999999999
    vertex 78.43639328006849 158.2406833869284 -1.000000000000003
  endloop
endfacet
facet normal 0.0 0.0 -1.0
  outer loop
    vertex 78.43639328006849 158.2406833869284 -1.000000000000003
    vertex 90.38267632086341 164.7895438981692 -0.9999999999999999
    vertex 79.38563730382387 157.54862860682974 -1.000000000000003
  endloop
endfacet
facet normal 0.0 0.0 -1.0
  outer loop
    vertex 79.38563730382387 157.54862860682974 -1.000000000000003
    vertex 90.38267632086341 164.7895438981692 -0.9999999999999999
    vertex 80.12341966447599 156.634472589728 -1.000000000000003
  endloop
endfacet
facet normal 0.0 0.0 -1.0
  outer loop
    vertex 80.12341966447599 156.634472589728 -1.000000000000003
    vertex 90.38267632086341 164.7895438981692 -0.9999999999999999
    vertex 80.59946171338939 155.56051355747442 -1.000000000000003
  endloop
endfacet
facet normal 0.0 0.0 -1.0
  outer loop
    vertex 80.59946171338939 155.56051355747442 -1.000000000000003
    vertex 90.38267632086341 164.7895438981692 -0.9999999999999999
    vertex 80.78132197162729 154.39994004331584 -1.000000000000003
  endloop
endfacet
facet normal 0.0 0.0 -1.0
  outer loop
    vertex 80.78132197162729 154.39994004331584 -1.000000000000003
    vertex 90.38267632086341 164.7895438981692 -0.9999999999999999
    vertex 82.0826233959827 145.2393623903694 -1.000000000000003
  endloop
endfacet
facet normal 0.0 0.0 -1.0
  outer loop
    vertex 80.78132197162729 154.39994004331584 -1.000000000000003
    vertex 82.0826233959827 145.2393623903694 -1.000000000000003
    vertex 82.03297451969694 144.91684606220875 -1.000000000000003
  endloop
endfacet
facet normal 0.0 0.0 -1.0
  outer loop
    vertex 82.0826233959827 145.2393623903694 -1.000000000000003
    vertex 90.38267632086341 164.7895438981692 -0.9999999999999999
    vertex 82.21405389591784 145.53803916638898 -1.000000000000003
  endloop
endfacet
facet normal 0.0 0.0 -1.0
  outer loop
    vertex 82.21405389591784 145.53803916638898 -1.000000000000003
    vertex 90.38267632086341 164.7895438981692 -0.9999999999999999
    vertex 82.41830924813098 145.7925220615685 -1.000000000000003
  endloop
endfacet
facet normal 0.0 0.0 -1.0
  outer loop
    vertex 82.41830924813098 145.7925220615685 -1.000000000000003
    vertex 90.38267632086341 164.7895438981692 -0.9999999999999999
    vertex 82.68146978791671 145.9854684871543 -1.000000000000003
  endloop
endfacet
facet normal 0.0 0.0 -1.0
  outer loop
    vertex 82.68146978791671 145.9854684871543 -1.000000000000003
    vertex 90.38267632086341 164.7895438981692 -0.9999999999999999
    vertex 82.98560155938198 146.1037294631018 -1.000000000000003
  endloop
endfacet
facet normal 0.0 0.0 -1.0
  outer loop
    vertex 82.98560155938198 146.1037294631018 -1.000000000000003
    vertex 90.38267632086341 164.7895438981692 -0.9999999999999999
    vertex 83.30997848490296 146.13924569933567 -1.000000000000003
  endloop
endfacet
facet normal 0.0 0.0 -1.0
  outer loop
    vertex 83.30997848490296 146.13924569933567 -1.000000000000003
    vertex 90.38267632086341 164.7895438981692 -0.9999999999999999
    vertex 83.6324948130636 146.08959682304993 -1.000000000000003
  endloop
endfacet
facet normal 0.0 0.0 -1.0
  outer loop
    vertex 83.6324948130636 146.08959682304993 -1.000000000000003
    vertex 90.38267632086341 164.7895438981692 -0.9999999999999999
    vertex 83.93117158908319 145.95816632311474 -1.000000000000003
  endloop
endfacet
facet normal 0.0 0.0 -1.0
  outer loop
    vertex 83.93117158908319 145.95816632311474 -1.000000000000003
    vertex 90.38267632086341 164.7895438981692 -0.9999999999999999
    vertex 84.1856544842627 145.75391097090161 -1.000000000000003
  endloop
endfacet
facet normal 0.0 0.0 -1.0
  outer loop
    vertex 84.1856544842627 145.75391097090161 -1.000000000000003
    vertex 90.38267632086341 164.7895438981692 -0.9999999999999999
    vertex 84.37860090984853 145.49075043111588 -1.000000000000003
  endloop
endfacet
facet normal 0.0 0.0 -1.0
  outer loop
    vertex 84.37860090984853 145.49075043111588 -1.000000000000003
    vertex 90.38267632086341 164.7895438981692 -0.9999999999999999
    vertex 84.49686188579602 145.1866186596506 -1.000000000000003
  endloop
endfacet
facet normal 0.0 0.0 -1.0
  outer loop
    vertex 84.49686188579602 145.1866186596506 -1.000000000000003
    vertex 90.38267632086341 164.7895438981692 -0.9999999999999999
    vertex 84.5323781220299 144.86224173412964 -1.000000000000003
  endloop
endfacet
facet normal 0.0 0.0 -1.0
  outer loop
    vertex 62.182676320863415 137.7895438981692 -0.9999999999999999
    vertex 73.17971533790295 151.03045918950863 -1.000000000000003
    vertex 90.38267632086341 137.7895438981692 -0.9999999999999999
  endloop
endfacet
facet normal 0.0 0.0 -1.0
  outer loop
    vertex 73.17971533790295 151.03045918950863 -1.000000000000003
    vertex 62.182676320863415 137.7895438981692 -0.9999999999999999
    vertex 72.44193297725084 151.9446152066104 -1.000000000000003
  endloop
endfacet
facet normal 0.0 0.0 -1.0
  outer loop
    vertex 72.44193297725084 151.9446152066104 -1.000000000000003
    vertex 62.182676320863415 137.7895438981692 -0.9999999999999999
    vertex 71.96589092833744 153.01857423886398 -1.000000000000003
  endloop
endfacet
facet normal 0.0 0.0 -1.0
  outer loop
    vertex 71.96589092833744 153.01857423886398 -1.000000000000003
    vertex 62.182676320863415 137.7895438981692 -0.9999999999999999
    vertex 71.78403067009953 154.17914775302256 -1.000000000000003
  endloop
endfacet
facet normal 0.0 0.0 -1.0
  outer loop
    vertex 90.38267632086341 137.7895438981692 -0.9999999999999999
    vertex 73.17971533790295 151.03045918950863 -1.000000000000003
    vertex 74.12895936165835 150.33840440940997 -1.000000000000003
  endloop
endfacet
facet normal 0.0 0.0 -1.0
  outer loop
    vertex 90.38267632086341 137.7895438981692 -0.9999999999999999
    vertex 74.12895936165835 150.33840440940997 -1.000000000000003
    vertex 82.63418105264364 143.82092147322362 -1.000000000000003
  endloop
endfacet
facet normal 0.0 0.0 -1.0
  outer loop
    vertex 82.63418105264364 143.82092147322362 -1.000000000000003
    vertex 74.12895936165835 150.33840440940997 -1.000000000000003
    vertex 82.37969815746412 144.02517682543674 -1.000000000000003
  endloop
endfacet
facet normal 0.0 0.0 -1.0
  outer loop
    vertex 82.37969815746412 144.02517682543674 -1.000000000000003
    vertex 74.12895936165835 150.33840440940997 -1.000000000000003
    vertex 75.22497563699801 149.9156132559035 -1.000000000000003
  endloop
endfacet
facet normal 0.0 0.0 -1.0
  outer loop
    vertex 82.37969815746412 144.02517682543674 -1.000000000000003
    vertex 75.22497563699801 149.9156132559035 -1.000000000000003
    vertex 76.39307246601005 149.79089824740532 -1.000000000000003
  endloop
endfacet
facet normal 0.0 0.0 -1.0
  outer loop
    vertex 82.37969815746412 144.02517682543674 -1.000000000000003
    vertex 76.39307246601005 149.79089824740532 -1.000000000000003
    vertex 77.55364598016862 149.9727585056432 -1.000000000000003
  endloop
endfacet
facet normal 0.0 0.0 -1.0
  outer loop
    vertex 82.37969815746412 144.02517682543674 -1.000000000000003
    vertex 77.55364598016862 149.9727585056432 -1.000000000000003
    vertex 82.18675173187829 144.28833736522247 -1.000000000000003
  endloop
endfacet
facet normal 0.0 0.0 -1.0
  outer loop
    vertex 82.18675173187829 144.28833736522247 -1.000000000000003
    vertex 77.55364598016862 149.9727585056432 -1.000000000000003
    vertex 78.62760501242222 150.4488005545566 -1.000000000000003
  endloop
endfacet
facet normal 0.0 0.0 -1.0
  outer loop
    vertex 82.18675173187829 144.28833736522247 -1.000000000000003
    vertex 78.62760501242222 150.4488005545566 -1.000000000000003
    vertex 82.0684907559308 144.59246913668775 -1.000000000000003
  endloop
endfacet
facet normal 0.0 0.0 -1.0
  outer loop
    vertex 82.0684907559308 144.59246913668775 -1.000000000000003
    vertex 78.62760501242222 150.4488005545566 -1.000000000000003
    vertex 79.54176102952397 151.18658291520873 -1.000000000000003
  endloop
endfacet
facet normal 0.0 0.0 -1.0
  outer loop
    vertex 82.0684907559308 144.59246913668775 -1.000000000000003
    vertex 79.54176102952397 151.18658291520873 -1.000000000000003
    vertex 80.23381580962264 152.13582693896413 -1.000000000000003
  endloop
endfacet
facet normal 0.0 0.0 -1.0
  outer loop
    vertex 82.0684907559308 144.59246913668775 -1.000000000000003
    vertex 80.23381580962264 152.13582693896413 -1.000000000000003
    vertex 80.6566069631291 153.23184321430378 -1.000000000000003
  endloop
endfacet
facet normal 0.0 0.0 -1.0
  outer loop
    vertex 82.0684907559308 144.59246913668775 -1.000000000000003
    vertex 80.6566069631291 153.23184321430378 -1.000000000000003
    vertex 80.78132197162729 154.39994004331584 -1.000000000000003
  endloop
endfacet
facet normal 0.0 0.0 -1.0
  outer loop
    vertex 82.0684907559308 144.59246913668775 -1.000000000000003
    vertex 80.78132197162729 154.39994004331584 -1.000000000000003
    vertex 82.03297451969694 144.91684606220875 -1.000000000000003
  endloop
endfacet
facet normal 0.0 0.0 -1.0
  outer loop
    vertex 90.38267632086341 137.7895438981692 -0.9999999999999999
    vertex 82.63418105264364 143.82092147322362 -1.000000000000003
    vertex 82.93285782866323 143.68949097328846 -1.000000000000003
  endloop
endfacet
facet normal 0.0 0.0 -1.0
  outer loop
    vertex 90.38267632086341 137.7895438981692 -0.9999999999999999
    vertex 82.93285782866323 143.68949097328846 -1.000000000000003
    vertex 83.25537415682388 143.63984209700268 -1.000000000000003
  endloop
endfacet
facet normal 0.0 0.0 -1.0
  outer loop
    vertex 90.38267632086341 137.7895438981692 -0.9999999999999999
    vertex 83.25537415682388 143.63984209700268 -1.000000000000003
    vertex 83.57975108234484 143.67535833323655 -1.000000000000003
  endloop
endfacet
facet normal 0.0 0.0 -1.0
  outer loop
    vertex 90.38267632086341 137.7895438981692 -0.9999999999999999
    vertex 83.57975108234484 143.67535833323655 -1.000000000000003
    vertex 83.88388285381012 143.79361930918407 -1.000000000000003
  endloop
endfacet
facet normal 0.0 0.0 -1.0
  outer loop
    vertex 90.38267632086341 137.7895438981692 -0.9999999999999999
    vertex 83.88388285381012 143.79361930918407 -1.000000000000003
    vertex 84.14704339359584 143.9865657347699 -1.000000000000003
  endloop
endfacet
facet normal 0.0 0.0 -1.0
  outer loop
    vertex 90.38267632086341 137.7895438981692 -0.9999999999999999
    vertex 84.14704339359584 143.9865657347699 -1.000000000000003
    vertex 84.35129874580899 144.2410486299494 -1.000000000000003
  endloop
endfacet
facet normal 0.0 0.0 -1.0
  outer loop
    vertex 90.38267632086341 137.7895438981692 -0.9999999999999999
    vertex 84.35129874580899 144.2410486299494 -1.000000000000003
    vertex 84.48272924574414 144.539725405969 -1.000000000000003
  endloop
endfacet
facet normal 0.0 0.0 -1.0
  outer loop
    vertex 90.38267632086341 137.7895438981692 -0.9999999999999999
    vertex 84.48272924574414 144.539725405969 -1.000000000000003
    vertex 84.5323781220299 144.86224173412964 -1.000000000000003
  endloop
endfacet
facet normal 0.0 0.0 -1.0
  outer loop
    vertex 90.38267632086341 137.7895438981692 -0.9999999999999999
    vertex 84.5323781220299 144.86224173412964 -1.000000000000003
    vertex 90.38267632086341 164.7895438981692 -0.9999999999999999
  endloop
endfacet
facet normal -0.0 -0.0 1.0
  outer loop
    vertex 64.68267632086341 140.2895438981692 -3.1724622928663847e-15
    vertex 72.44193297725084 151.9446152066104 -3.1724622928663847e-15
    vertex 64.68267632086341 162.2895438981692 -3.1724622928663847e-15
  endloop
endfacet
facet normal -0.0 -0.0 1.0
  outer loop
    vertex 72.44193297725084 151.9446152066104 -3.1724622928663847e-15
    vertex 64.68267632086341 140.2895438981692 -3.1724622928663847e-15
    vertex 73.17971533790295 151.03045918950863 -3.1724622928663847e-15
  endloop
endfacet
facet normal -0.0 -0.0 1.0
  outer loop
    vertex 73.17971533790295 151.03045918950863 -3.1724622928663847e-15
    vertex 64.68267632086341 140.2895438981692 -3.1724622928663847e-15
    vertex 82.63418105264364 143.82092147322362 -3.1724622928663847e-15
  endloop
endfacet
facet normal -0.0 -0.0 1.0
  outer loop
    vertex 82.63418105264364 143.82092147322362 -3.1724622928663847e-15
    vertex 64.68267632086341 140.2895438981692 -3.1724622928663847e-15
    vertex 87.88267632086341 140.2895438981692 -3.1724622928663847e-15
  endloop
endfacet
facet normal -0.0 -0.0 1.0
  outer loop
    vertex 64.68267632086341 162.2895438981692 -3.1724622928663847e-15
    vertex 72.44193297725084 151.9446152066104 -3.1724622928663847e-15
    vertex 71.96589092833744 153.01857423886398 -3.1724622928663847e-15
  endloop
endfacet
facet normal -0.0 -0.0 1.0
  outer loop
    vertex 64.68267632086341 162.2895438981692 -3.1724622928663847e-15
    vertex 71.96589092833744 153.01857423886398 -3.1724622928663847e-15
    vertex 71.78403067009953 154.17914775302256 -3.1724622928663847e-15
  endloop
endfacet
facet normal -0.0 -0.0 1.0
  outer loop
    vertex 73.17971533790295 151.03045918950863 -3.1724622928663847e-15
    vertex 82.63418105264364 143.82092147322362 -3.1724622928663847e-15
    vertex 74.12895936165835 150.33840440940997 -3.1724622928663847e-15
  endloop
endfacet
facet normal -0.0 -0.0 1.0
  outer loop
    vertex 74.12895936165835 150.33840440940997 -3.1724622928663847e-15
    vertex 82.63418105264364 143.82092147322362 -3.1724622928663847e-15
    vertex 82.37969815746412 144.02517682543674 -3.1724622928663847e-15
  endloop
endfacet
facet normal -0.0 -0.0 1.0
  outer loop
    vertex 74.12895936165835 150.33840440940997 -3.1724622928663847e-15
    vertex 82.37969815746412 144.02517682543674 -3.1724622928663847e-15
    vertex 75.22497563699801 149.9156132559035 -3.1724622928663847e-15
  endloop
endfacet
facet normal -0.0 -0.0 1.0
  outer loop
    vertex 75.22497563699801 149.9156132559035 -3.1724622928663847e-15
    vertex 82.37969815746412 144.02517682543674 -3.1724622928663847e-15
    vertex 76.39307246601005 149.79089824740532 -3.1724622928663847e-15
  endloop
endfacet
facet normal -0.0 -0.0 1.0
  outer loop
    vertex 76.39307246601005 149.79089824740532 -3.1724622928663847e-15
    vertex 82.37969815746412 144.02517682543674 -3.1724622928663847e-15
    vertex 77.55364598016862 149.9727585056432 -3.1724622928663847e-15
  endloop
endfacet
facet normal -0.0 -0.0 1.0
  outer loop
    vertex 77.55364598016862 149.9727585056432 -3.1724622928663847e-15
    vertex 82.37969815746412 144.02517682543674 -3.1724622928663847e-15
    vertex 82.18675173187829 144.28833736522247 -3.1724622928663847e-15
  endloop
endfacet
facet normal -0.0 -0.0 1.0
  outer loop
    vertex 77.55364598016862 149.9727585056432 -3.1724622928663847e-15
    vertex 82.18675173187829 144.28833736522247 -3.1724622928663847e-15
    vertex 78.62760501242222 150.4488005545566 -3.1724622928663847e-15
  endloop
endfacet
facet normal -0.0 -0.0 1.0
  outer loop
    vertex 78.62760501242222 150.4488005545566 -3.1724622928663847e-15
    vertex 82.18675173187829 144.28833736522247 -3.1724622928663847e-15
    vertex 82.0684907559308 144.59246913668775 -3.1724622928663847e-15
  endloop
endfacet
facet normal -0.0 -0.0 1.0
  outer loop
    vertex 78.62760501242222 150.4488005545566 -3.1724622928663847e-15
    vertex 82.0684907559308 144.59246913668775 -3.1724622928663847e-15
    vertex 79.54176102952397 151.18658291520873 -3.1724622928663847e-15
  endloop
endfacet
facet normal -0.0 -0.0 1.0
  outer loop
    vertex 79.54176102952397 151.18658291520873 -3.1724622928663847e-15
    vertex 82.0684907559308 144.59246913668775 -3.1724622928663847e-15
    vertex 80.23381580962264 152.13582693896413 -3.1724622928663847e-15
  endloop
endfacet
facet normal -0.0 -0.0 1.0
  outer loop
    vertex 80.23381580962264 152.13582693896413 -3.1724622928663847e-15
    vertex 82.0684907559308 144.59246913668775 -3.1724622928663847e-15
    vertex 80.6566069631291 153.23184321430378 -3.1724622928663847e-15
  endloop
endfacet
facet normal -0.0 -0.0 1.0
  outer loop
    vertex 80.6566069631291 153.23184321430378 -3.1724622928663847e-15
    vertex 82.0684907559308 144.59246913668775 -3.1724622928663847e-15
    vertex 80.78132197162729 154.39994004331584 -3.1724622928663847e-15
  endloop
endfacet
facet normal -0.0 -0.0 1.0
  outer loop
    vertex 80.78132197162729 154.39994004331584 -3.1724622928663847e-15
    vertex 82.0684907559308 144.59246913668775 -3.1724622928663847e-15
    vertex 82.03297451969694 144.91684606220875 -3.1724622928663847e-15
  endloop
endfacet
facet normal -0.0 -0.0 1.0
  outer loop
    vertex 82.63418105264364 143.82092147322362 -3.1724622928663847e-15
    vertex 87.88267632086341 140.2895438981692 -3.1724622928663847e-15
    vertex 82.93285782866323 143.68949097328846 -3.1724622928663847e-15
  endloop
endfacet
facet normal -0.0 -0.0 1.0
  outer loop
    vertex 82.93285782866323 143.68949097328846 -3.1724622928663847e-15
    vertex 87.88267632086341 140.2895438981692 -3.1724622928663847e-15
    vertex 83.25537415682388 143.63984209700268 -3.1724622928663847e-15
  endloop
endfacet
facet normal -0.0 -0.0 1.0
  outer loop
    vertex 83.25537415682388 143.63984209700268 -3.1724622928663847e-15
    vertex 87.88267632086341 140.2895438981692 -3.1724622928663847e-15
    vertex 83.57975108234484 143.67535833323655 -3.1724622928663847e-15
  endloop
endfacet
facet normal -0.0 -0.0 1.0
  outer loop
    vertex 83.57975108234484 143.67535833323655 -3.1724622928663847e-15
    vertex 87.88267632086341 140.2895438981692 -3.1724622928663847e-15
    vertex 83.88388285381012 143.79361930918407 -3.1724622928663847e-15
  endloop
endfacet
facet normal -0.0 -0.0 1.0
  outer loop
    vertex 83.88388285381012 143.79361930918407 -3.1724622928663847e-15
    vertex 87.88267632086341 140.2895438981692 -3.1724622928663847e-15
    vertex 84.14704339359584 143.9865657347699 -3.1724622928663847e-15
  endloop
endfacet
facet normal -0.0 -0.0 1.0
  outer loop
    vertex 84.14704339359584 143.9865657347699 -3.1724622928663847e-15
    vertex 87.88267632086341 140.2895438981692 -3.1724622928663847e-15
    vertex 84.35129874580899 144.2410486299494 -3.1724622928663847e-15
  endloop
endfacet
facet normal -0.0 -0.0 1.0
  outer loop
    vertex 84.35129874580899 144.2410486299494 -3.1724622928663847e-15
    vertex 87.88267632086341 140.2895438981692 -3.1724622928663847e-15
    vertex 84.48272924574414 144.539725405969 -3.1724622928663847e-15
  endloop
endfacet
facet normal -0.0 -0.0 1.0
  outer loop
    vertex 84.48272924574414 144.539725405969 -3.1724622928663847e-15
    vertex 87.88267632086341 140.2895438981692 -3.1724622928663847e-15
    vertex 84.5323781220299 144.86224173412964 -3.1724622928663847e-15
  endloop
endfacet
facet normal -0.0 -0.0 1.0
  outer loop
    vertex 64.68267632086341 162.2895438981692 -3.1724622928663847e-15
    vertex 75.0117066615582 158.60632929069516 -3.1724622928663847e-15
    vertex 87.88267632086341 162.2895438981692 -3.1724622928663847e-15
  endloop
endfacet
facet normal -0.0 -0.0 1.0
  outer loop
    vertex 75.0117066615582 158.60632929069516 -3.1724622928663847e-15
    vertex 64.68267632086341 162.2895438981692 -3.1724622928663847e-15
    vertex 73.9377476293046 158.13028724178176 -3.1724622928663847e-15
  endloop
endfacet
facet normal -0.0 -0.0 1.0
  outer loop
    vertex 73.9377476293046 158.13028724178176 -3.1724622928663847e-15
    vertex 64.68267632086341 162.2895438981692 -3.1724622928663847e-15
    vertex 73.02359161220285 157.39250488112967 -3.1724622928663847e-15
  endloop
endfacet
facet normal -0.0 -0.0 1.0
  outer loop
    vertex 73.02359161220285 157.39250488112967 -3.1724622928663847e-15
    vertex 64.68267632086341 162.2895438981692 -3.1724622928663847e-15
    vertex 72.33153683210419 156.44326085737427 -3.1724622928663847e-15
  endloop
endfacet
facet normal -0.0 -0.0 1.0
  outer loop
    vertex 72.33153683210419 156.44326085737427 -3.1724622928663847e-15
    vertex 64.68267632086341 162.2895438981692 -3.1724622928663847e-15
    vertex 71.90874567859773 155.34724458203462 -3.1724622928663847e-15
  endloop
endfacet
facet normal -0.0 -0.0 1.0
  outer loop
    vertex 71.90874567859773 155.34724458203462 -3.1724622928663847e-15
    vertex 64.68267632086341 162.2895438981692 -3.1724622928663847e-15
    vertex 71.78403067009953 154.17914775302256 -3.1724622928663847e-15
  endloop
endfacet
facet normal -0.0 -0.0 1.0
  outer loop
    vertex 87.88267632086341 162.2895438981692 -3.1724622928663847e-15
    vertex 75.0117066615582 158.60632929069516 -3.1724622928663847e-15
    vertex 76.17228017571676 158.78818954893308 -3.1724622928663847e-15
  endloop
endfacet
facet normal -0.0 -0.0 1.0
  outer loop
    vertex 87.88267632086341 162.2895438981692 -3.1724622928663847e-15
    vertex 76.17228017571676 158.78818954893308 -3.1724622928663847e-15
    vertex 77.34037700472882 158.66347454043486 -3.1724622928663847e-15
  endloop
endfacet
facet normal -0.0 -0.0 1.0
  outer loop
    vertex 87.88267632086341 162.2895438981692 -3.1724622928663847e-15
    vertex 77.34037700472882 158.66347454043486 -3.1724622928663847e-15
    vertex 78.43639328006849 158.2406833869284 -3.1724622928663847e-15
  endloop
endfacet
facet normal -0.0 -0.0 1.0
  outer loop
    vertex 87.88267632086341 162.2895438981692 -3.1724622928663847e-15
    vertex 78.43639328006849 158.2406833869284 -3.1724622928663847e-15
    vertex 79.38563730382387 157.54862860682974 -3.1724622928663847e-15
  endloop
endfacet
facet normal -0.0 -0.0 1.0
  outer loop
    vertex 87.88267632086341 162.2895438981692 -3.1724622928663847e-15
    vertex 79.38563730382387 157.54862860682974 -3.1724622928663847e-15
    vertex 80.12341966447599 156.634472589728 -3.1724622928663847e-15
  endloop
endfacet
facet normal -0.0 -0.0 1.0
  outer loop
    vertex 87.88267632086341 162.2895438981692 -3.1724622928663847e-15
    vertex 80.12341966447599 156.634472589728 -3.1724622928663847e-15
    vertex 80.59946171338939 155.56051355747442 -3.1724622928663847e-15
  endloop
endfacet
facet normal -0.0 -0.0 1.0
  outer loop
    vertex 87.88267632086341 162.2895438981692 -3.1724622928663847e-15
    vertex 80.59946171338939 155.56051355747442 -3.1724622928663847e-15
    vertex 80.78132197162729 154.39994004331584 -3.1724622928663847e-15
  endloop
endfacet
facet normal -0.0 -0.0 1.0
  outer loop
    vertex 87.88267632086341 162.2895438981692 -3.1724622928663847e-15
    vertex 80.78132197162729 154.39994004331584 -3.1724622928663847e-15
    vertex 82.0826233959827 145.2393623903694 -3.1724622928663847e-15
  endloop
endfacet
facet normal -0.0 -0.0 1.0
  outer loop
    vertex 82.0826233959827 145.2393623903694 -3.1724622928663847e-15
    vertex 80.78132197162729 154.39994004331584 -3.1724622928663847e-15
    vertex 82.03297451969694 144.91684606220875 -3.1724622928663847e-15
  endloop
endfacet
facet normal -0.0 -0.0 1.0
  outer loop
    vertex 87.88267632086341 162.2895438981692 -3.1724622928663847e-15
    vertex 82.0826233959827 145.2393623903694 -3.1724622928663847e-15
    vertex 82.21405389591784 145.53803916638898 -3.1724622928663847e-15
  endloop
endfacet
facet normal -0.0 -0.0 1.0
  outer loop
    vertex 87.88267632086341 162.2895438981692 -3.1724622928663847e-15
    vertex 82.21405389591784 145.53803916638898 -3.1724622928663847e-15
    vertex 82.41830924813098 145.7925220615685 -3.1724622928663847e-15
  endloop
endfacet
facet normal -0.0 -0.0 1.0
  outer loop
    vertex 87.88267632086341 162.2895438981692 -3.1724622928663847e-15
    vertex 82.41830924813098 145.7925220615685 -3.1724622928663847e-15
    vertex 82.68146978791671 145.9854684871543 -3.1724622928663847e-15
  endloop
endfacet
facet normal -0.0 -0.0 1.0
  outer loop
    vertex 87.88267632086341 162.2895438981692 -3.1724622928663847e-15
    vertex 82.68146978791671 145.9854684871543 -3.1724622928663847e-15
    vertex 82.98560155938198 146.1037294631018 -3.1724622928663847e-15
  endloop
endfacet
facet normal -0.0 -0.0 1.0
  outer loop
    vertex 87.88267632086341 162.2895438981692 -3.1724622928663847e-15
    vertex 82.98560155938198 146.1037294631018 -3.1724622928663847e-15
    vertex 83.30997848490296 146.13924569933567 -3.1724622928663847e-15
  endloop
endfacet
facet normal -0.0 -0.0 1.0
  outer loop
    vertex 87.88267632086341 162.2895438981692 -3.1724622928663847e-15
    vertex 83.30997848490296 146.13924569933567 -3.1724622928663847e-15
    vertex 83.6324948130636 146.08959682304993 -3.1724622928663847e-15
  endloop
endfacet
facet normal -0.0 -0.0 1.0
  outer loop
    vertex 87.88267632086341 162.2895438981692 -3.1724622928663847e-15
    vertex 83.6324948130636 146.08959682304993 -3.1724622928663847e-15
    vertex 83.93117158908319 145.95816632311474 -3.1724622928663847e-15
  endloop
endfacet
facet normal -0.0 -0.0 1.0
  outer loop
    vertex 87.88267632086341 162.2895438981692 -3.1724622928663847e-15
    vertex 83.93117158908319 145.95816632311474 -3.1724622928663847e-15
    vertex 84.1856544842627 145.75391097090161 -3.1724622928663847e-15
  endloop
endfacet
facet normal -0.0 -0.0 1.0
  outer loop
    vertex 87.88267632086341 162.2895438981692 -3.1724622928663847e-15
    vertex 84.1856544842627 145.75391097090161 -3.1724622928663847e-15
    vertex 84.37860090984853 145.49075043111588 -3.1724622928663847e-15
  endloop
endfacet
facet normal -0.0 -0.0 1.0
  outer loop
    vertex 87.88267632086341 162.2895438981692 -3.1724622928663847e-15
    vertex 84.37860090984853 145.49075043111588 -3.1724622928663847e-15
    vertex 84.49686188579602 145.1866186596506 -3.1724622928663847e-15
  endloop
endfacet
facet normal -0.0 -0.0 1.0
  outer loop
    vertex 87.88267632086341 162.2895438981692 -3.1724622928663847e-15
    vertex 84.49686188579602 145.1866186596506 -3.1724622928663847e-15
    vertex 84.5323781220299 144.86224173412964 -3.1724622928663847e-15
  endloop
endfacet
facet normal -0.0 -0.0 1.0
  outer loop
    vertex 87.88267632086341 162.2895438981692 -3.1724622928663847e-15
    vertex 84.5323781220299 144.86224173412964 -3.1724622928663847e-15
    vertex 87.88267632086341 140.2895438981692 -3.1724622928663847e-15
  endloop
endfacet
facet normal 0.0 0.0 1.0
  outer loop
    vertex 63.88267632086341 139.4895438981692 4.8
    vertex 64.68267632086341 140.2895438981692 4.799999999999997
    vertex 63.88267632086341 163.0895438981692 4.8
  endloop
endfacet
facet normal 0.0 0.0 1.0
  outer loop
    vertex 64.68267632086341 140.2895438981692 4.799999999999997
    vertex 63.88267632086341 139.4895438981692 4.8
    vertex 88.68267632086341 139.4895438981692 4.8
  endloop
endfacet
facet normal 0.0 0.0 1.0
  outer loop
    vertex 64.68267632086341 140.2895438981692 4.799999999999997
    vertex 88.68267632086341 139.4895438981692 4.8
    vertex 87.88267632086341 140.2895438981692 4.799999999999997
  endloop
endfacet
facet normal 0.0 0.0 1.0
  outer loop
    vertex 87.88267632086341 140.2895438981692 4.799999999999997
    vertex 88.68267632086341 139.4895438981692 4.8
    vertex 87.88267632086341 162.2895438981692 4.799999999999997
  endloop
endfacet
facet normal 0.0 0.0 1.0
  outer loop
    vertex 63.88267632086341 163.0895438981692 4.8
    vertex 64.68267632086341 162.2895438981692 4.799999999999997
    vertex 67.78267632086342 163.0895438981692 4.8
  endloop
endfacet
facet normal 0.0 0.0 1.0
  outer loop
    vertex 64.68267632086341 162.2895438981692 4.799999999999997
    vertex 63.88267632086341 163.0895438981692 4.8
    vertex 64.68267632086341 140.2895438981692 4.799999999999997
  endloop
endfacet
facet normal 0.0 0.0 1.0
  outer loop
    vertex 67.78267632086342 163.0895438981692 4.8
    vertex 64.68267632086341 162.2895438981692 4.799999999999997
    vertex 87.88267632086341 162.2895438981692 4.799999999999997
  endloop
endfacet
facet normal 0.0 0.0 1.0
  outer loop
    vertex 67.78267632086342 163.0895438981692 4.8
    vertex 87.88267632086341 162.2895438981692 4.799999999999997
    vertex 67.78267632086342 164.7895438981692 4.8
  endloop
endfacet
facet normal 0.0 0.0 1.0
  outer loop
    vertex 67.78267632086342 164.7895438981692 4.8
    vertex 87.88267632086341 162.2895438981692 4.799999999999997
    vertex 84.7826763208634 163.0895438981692 4.8
  endloop
endfacet
facet normal 0.0 0.0 1.0
  outer loop
    vertex 84.7826763208634 163.0895438981692 4.8
    vertex 87.88267632086341 162.2895438981692 4.799999999999997
    vertex 88.68267632086341 163.0895438981692 4.8
  endloop
endfacet
facet normal 0.0 0.0 1.0
  outer loop
    vertex 88.68267632086341 163.0895438981692 4.8
    vertex 87.88267632086341 162.2895438981692 4.799999999999997
    vertex 88.68267632086341 139.4895438981692 4.8
  endloop
endfacet
facet normal 0.0 0.0 1.0
  outer loop
    vertex 84.7826763208634 164.7895438981692 4.8
    vertex 67.78267632086342 164.7895438981692 4.8
    vertex 84.7826763208634 163.0895438981692 4.8
  endloop
endfacet
facet normal -1.0 -0.0 -0.0
  outer loop
    vertex 67.78267632086342 164.7895438981692 4.8
    vertex 67.78267632086342 163.0895438981692 0.0
    vertex 67.78267632086342 163.0895438981692 4.8
  endloop
endfacet
facet normal -1.0 -0.0 -0.0
  outer loop
    vertex 67.78267632086342 163.0895438981692 0.0
    vertex 67.78267632086342 164.7895438981692 4.8
    vertex 67.78267632086342 164.7895438981692 0.0
  endloop
endfacet
facet normal 0.0 1.0 0.0
  outer loop
    vertex 63.88267632086341 163.0895438981692 4.8
    vertex 67.78267632086342 163.0895438981692 0.0
    vertex 63.88267632086341 163.0895438981692 0.0
  endloop
endfacet
facet normal 0.0 1.0 0.0
  outer loop
    vertex 67.78267632086342 163.0895438981692 0.0
    vertex 63.88267632086341 163.0895438981692 4.8
    vertex 67.78267632086342 163.0895438981692 4.8
  endloop
endfacet
facet normal -1.0 -0.0 -0.0
  outer loop
    vertex 63.88267632086341 163.0895438981692 4.8
    vertex 63.88267632086341 139.4895438981692 0.0
    vertex 63.88267632086341 139.4895438981692 4.8
  endloop
endfacet
facet normal -1.0 -0.0 -0.0
  outer loop
    vertex 63.88267632086341 139.4895438981692 0.0
    vertex 63.88267632086341 163.0895438981692 4.8
    vertex 63.88267632086341 163.0895438981692 0.0
  endloop
endfacet
facet normal 0.0 -1.0 0.0
  outer loop
    vertex 88.68267632086341 139.4895438981692 4.8
    vertex 63.88267632086341 139.4895438981692 0.0
    vertex 88.68267632086341 139.4895438981692 0.0
  endloop
endfacet
facet normal 0.0 -1.0 0.0
  outer loop
    vertex 63.88267632086341 139.4895438981692 0.0
    vertex 88.68267632086341 139.4895438981692 4.8
    vertex 63.88267632086341 139.4895438981692 4.8
  endloop
endfacet
facet normal 1.0 -0.0 0.0
  outer loop
    vertex 88.68267632086341 163.0895438981692 0.0
    vertex 88.68267632086341 139.4895438981692 4.8
    vertex 88.68267632086341 139.4895438981692 0.0
  endloop
endfacet
facet normal 1.0 -0.0 0.0
  outer loop
    vertex 88.68267632086341 139.4895438981692 4.8
    vertex 88.68267632086341 163.0895438981692 0.0
    vertex 88.68267632086341 163.0895438981692 4.8
  endloop
endfacet
facet normal 0.0 1.0 0.0
  outer loop
    vertex 84.7826763208634 163.0895438981692 4.8
    vertex 88.68267632086341 163.0895438981692 0.0
    vertex 84.7826763208634 163.0895438981692 0.0
  endloop
endfacet
facet normal 0.0 1.0 0.0
  outer loop
    vertex 88.68267632086341 163.0895438981692 0.0
    vertex 84.7826763208634 163.0895438981692 4.8
    vertex 88.68267632086341 163.0895438981692 4.8
  endloop
endfacet
facet normal 1.0 -0.0 0.0
  outer loop
    vertex 84.7826763208634 164.7895438981692 0.0
    vertex 84.7826763208634 163.0895438981692 4.8
    vertex 84.7826763208634 163.0895438981692 0.0
  endloop
endfacet
facet normal 1.0 -0.0 0.0
  outer loop
    vertex 84.7826763208634 163.0895438981692 4.8
    vertex 84.7826763208634 164.7895438981692 0.0
    vertex 84.7826763208634 164.7895438981692 4.8
  endloop
endfacet
facet normal 1.0 -0.0 0.0
  outer loop
    vertex 64.68267632086341 162.2895438981692 -3.1724622928663847e-15
    vertex 64.68267632086341 140.2895438981692 4.799999999999997
    vertex 64.68267632086341 140.2895438981692 -3.1724622928663847e-15
  endloop
endfacet
facet normal 1.0 -0.0 0.0
  outer loop
    vertex 64.68267632086341 140.2895438981692 4.799999999999997
    vertex 64.68267632086341 162.2895438981692 -3.1724622928663847e-15
    vertex 64.68267632086341 162.2895438981692 4.799999999999997
  endloop
endfacet
facet normal 0.0 -1.0 0.0
  outer loop
    vertex 87.88267632086341 162.2895438981692 4.799999999999997
    vertex 64.68267632086341 162.2895438981692 -3.1724622928663847e-15
    vertex 87.88267632086341 162.2895438981692 -3.1724622928663847e-15
  endloop
endfacet
facet normal 0.0 -1.0 0.0
  outer loop
    vertex 64.68267632086341 162.2895438981692 -3.1724622928663847e-15
    vertex 87.88267632086341 162.2895438981692 4.799999999999997
    vertex 64.68267632086341 162.2895438981692 4.799999999999997
  endloop
endfacet
facet normal -1.0 -0.0 -0.0
  outer loop
    vertex 87.88267632086341 162.2895438981692 4.799999999999997
    vertex 87.88267632086341 140.2895438981692 -3.1724622928663847e-15
    vertex 87.88267632086341 140.2895438981692 4.799999999999997
  endloop
endfacet
facet normal -1.0 -0.0 -0.0
  outer loop
    vertex 87.88267632086341 140.2895438981692 -3.1724622928663847e-15
    vertex 87.88267632086341 162.2895438981692 4.799999999999997
    vertex 87.88267632086341 162.2895438981692 -3.1724622928663847e-15
  endloop
endfacet
facet normal 0.0 1.0 0.0
  outer loop
    vertex 64.68267632086341 140.2895438981692 4.799999999999997
    vertex 87.88267632086341 140.2895438981692 -3.1724622928663847e-15
    vertex 64.68267632086341 140.2895438981692 -3.1724622928663847e-15
  endloop
endfacet
facet normal 0.0 1.0 0.0
  outer loop
    vertex 87.88267632086341 140.2895438981692 -3.1724622928663847e-15
    vertex 64.68267632086341 140.2895438981692 4.799999999999997
    vertex 87.88267632086341 140.2895438981692 4.799999999999997
  endloop
endfacet
facet normal 0.4027712682021398 0.9153006639956294 0.0
  outer loop
    vertex 82.63418105264364 143.82092147322362 -3.1724622928663847e-15
    vertex 82.93285782866323 143.68949097328846 -1.000000000000003
    vertex 82.63418105264364 143.82092147322362 -1.000000000000003
  endloop
endfacet
facet normal 0.4027712682021398 0.9153006639956294 0.0
  outer loop
    vertex 82.93285782866323 143.68949097328846 -1.000000000000003
    vertex 82.63418105264364 143.82092147322362 -3.1724622928663847e-15
    vertex 82.93285782866323 143.68949097328846 -3.1724622928663847e-15
  endloop
endfacet
facet normal 0.1521499262065557 0.9883574252037265 0.0
  outer loop
    vertex 82.93285782866323 143.68949097328846 -3.1724622928663847e-15
    vertex 83.25537415682388 143.63984209700268 -1.000000000000003
    vertex 82.93285782866323 143.68949097328846 -1.000000000000003
  endloop
endfacet
facet normal 0.1521499262065557 0.9883574252037265 0.0
  outer loop
    vertex 83.25537415682388 143.63984209700268 -1.000000000000003
    vertex 82.93285782866323 143.68949097328846 -3.1724622928663847e-15
    vertex 83.25537415682388 143.63984209700268 -3.1724622928663847e-15
  endloop
endfacet
facet normal -0.10884018182033219 0.9940592612220447 -0.0
  outer loop
    vertex 83.25537415682388 143.63984209700268 -3.1724622928663847e-15
    vertex 83.57975108234484 143.67535833323655 -1.000000000000003
    vertex 83.25537415682388 143.63984209700268 -1.000000000000003
  endloop
endfacet
facet normal -0.10884018182033219 0.9940592612220447 -0.0
  outer loop
    vertex 83.57975108234484 143.67535833323655 -1.000000000000003
    vertex 83.25537415682388 143.63984209700268 -3.1724622928663847e-15
    vertex 83.57975108234484 143.67535833323655 -3.1724622928663847e-15
  endloop
endfacet
facet normal -0.36241301132308334 0.9320176013486734 -0.0
  outer loop
    vertex 83.57975108234484 143.67535833323655 -3.1724622928663847e-15
    vertex 83.88388285381012 143.79361930918407 -1.000000000000003
    vertex 83.57975108234484 143.67535833323655 -1.000000000000003
  endloop
endfacet
facet normal -0.36241301132308334 0.9320176013486734 -0.0
  outer loop
    vertex 83.88388285381012 143.79361930918407 -1.000000000000003
    vertex 83.57975108234484 143.67535833323655 -3.1724622928663847e-15
    vertex 83.88388285381012 143.79361930918407 -3.1724622928663847e-15
  endloop
endfacet
facet normal -0.5912879930199303 0.8064604821753282 -0.0
  outer loop
    vertex 83.88388285381012 143.79361930918407 -3.1724622928663847e-15
    vertex 84.14704339359584 143.9865657347699 -1.000000000000003
    vertex 83.88388285381012 143.79361930918407 -1.000000000000003
  endloop
endfacet
facet normal -0.5912879930199303 0.8064604821753282 -0.0
  outer loop
    vertex 84.14704339359584 143.9865657347699 -1.000000000000003
    vertex 83.88388285381012 143.79361930918407 -3.1724622928663847e-15
    vertex 84.14704339359584 143.9865657347699 -3.1724622928663847e-15
  endloop
endfacet
facet normal -0.7798676751421152 0.6259444138806834 -0.0
  outer loop
    vertex 84.35129874580899 144.2410486299494 -3.1724622928663847e-15
    vertex 84.14704339359584 143.9865657347699 -1.000000000000003
    vertex 84.14704339359584 143.9865657347699 -3.1724622928663847e-15
  endloop
endfacet
facet normal -0.7798676751421152 0.6259444138806834 -0.0
  outer loop
    vertex 84.14704339359584 143.9865657347699 -1.000000000000003
    vertex 84.35129874580899 144.2410486299494 -3.1724622928663847e-15
    vertex 84.35129874580899 144.2410486299494 -1.000000000000003
  endloop
endfacet
facet normal -0.9153006639956549 0.4027712682020819 -0.0
  outer loop
    vertex 84.48272924574414 144.539725405969 -3.1724622928663847e-15
    vertex 84.35129874580899 144.2410486299494 -1.000000000000003
    vertex 84.35129874580899 144.2410486299494 -3.1724622928663847e-15
  endloop
endfacet
facet normal -0.9153006639956549 0.4027712682020819 -0.0
  outer loop
    vertex 84.35129874580899 144.2410486299494 -1.000000000000003
    vertex 84.48272924574414 144.539725405969 -3.1724622928663847e-15
    vertex 84.48272924574414 144.539725405969 -1.000000000000003
  endloop
endfacet
facet normal -0.9883574252037265 0.1521499262065557 -0.0
  outer loop
    vertex 84.5323781220299 144.86224173412964 -3.1724622928663847e-15
    vertex 84.48272924574414 144.539725405969 -1.000000000000003
    vertex 84.48272924574414 144.539725405969 -3.1724622928663847e-15
  endloop
endfacet
facet normal -0.9883574252037265 0.1521499262065557 -0.0
  outer loop
    vertex 84.48272924574414 144.539725405969 -1.000000000000003
    vertex 84.5323781220299 144.86224173412964 -3.1724622928663847e-15
    vertex 84.5323781220299 144.86224173412964 -1.000000000000003
  endloop
endfacet
facet normal -0.9940592612220451 -0.10884018182032845 -0.0
  outer loop
    vertex 84.49686188579602 145.1866186596506 -3.1724622928663847e-15
    vertex 84.5323781220299 144.86224173412964 -1.000000000000003
    vertex 84.5323781220299 144.86224173412964 -3.1724622928663847e-15
  endloop
endfacet
facet normal -0.9940592612220451 -0.10884018182032845 -0.0
  outer loop
    vertex 84.5323781220299 144.86224173412964 -1.000000000000003
    vertex 84.49686188579602 145.1866186596506 -3.1724622928663847e-15
    vertex 84.49686188579602 145.1866186596506 -1.000000000000003
  endloop
endfacet
facet normal -0.9320176013486852 -0.3624130113230533 -0.0
  outer loop
    vertex 84.37860090984853 145.49075043111588 -3.1724622928663847e-15
    vertex 84.49686188579602 145.1866186596506 -1.000000000000003
    vertex 84.49686188579602 145.1866186596506 -3.1724622928663847e-15
  endloop
endfacet
facet normal -0.9320176013486852 -0.3624130113230533 -0.0
  outer loop
    vertex 84.49686188579602 145.1866186596506 -1.000000000000003
    vertex 84.37860090984853 145.49075043111588 -3.1724622928663847e-15
    vertex 84.37860090984853 145.49075043111588 -1.000000000000003
  endloop
endfacet
facet normal -0.8064604821753117 -0.5912879930199527 -0.0
  outer loop
    vertex 84.1856544842627 145.75391097090161 -3.1724622928663847e-15
    vertex 84.37860090984853 145.49075043111588 -1.000000000000003
    vertex 84.37860090984853 145.49075043111588 -3.1724622928663847e-15
  endloop
endfacet
facet normal -0.8064604821753117 -0.5912879930199527 -0.0
  outer loop
    vertex 84.37860090984853 145.49075043111588 -1.000000000000003
    vertex 84.1856544842627 145.75391097090161 -3.1724622928663847e-15
    vertex 84.1856544842627 145.75391097090161 -1.000000000000003
  endloop
endfacet
facet normal -0.6259444138806625 -0.7798676751421322 -0.0
  outer loop
    vertex 84.1856544842627 145.75391097090161 -3.1724622928663847e-15
    vertex 83.93117158908319 145.95816632311474 -1.000000000000003
    vertex 84.1856544842627 145.75391097090161 -1.000000000000003
  endloop
endfacet
facet normal -0.6259444138806625 -0.7798676751421322 -0.0
  outer loop
    vertex 83.93117158908319 145.95816632311474 -1.000000000000003
    vertex 84.1856544842627 145.75391097090161 -3.1724622928663847e-15
    vertex 83.93117158908319 145.95816632311474 -3.1724622928663847e-15
  endloop
endfacet
facet normal -0.4027712682021398 -0.9153006639956294 -0.0
  outer loop
    vertex 83.93117158908319 145.95816632311474 -3.1724622928663847e-15
    vertex 83.6324948130636 146.08959682304993 -1.000000000000003
    vertex 83.93117158908319 145.95816632311474 -1.000000000000003
  endloop
endfacet
facet normal -0.4027712682021398 -0.9153006639956294 -0.0
  outer loop
    vertex 83.6324948130636 146.08959682304993 -1.000000000000003
    vertex 83.93117158908319 145.95816632311474 -3.1724622928663847e-15
    vertex 83.6324948130636 146.08959682304993 -3.1724622928663847e-15
  endloop
endfacet
facet normal -0.1521499262065557 -0.9883574252037265 -0.0
  outer loop
    vertex 83.6324948130636 146.08959682304993 -3.1724622928663847e-15
    vertex 83.30997848490296 146.13924569933567 -1.000000000000003
    vertex 83.6324948130636 146.08959682304993 -1.000000000000003
  endloop
endfacet
facet normal -0.1521499262065557 -0.9883574252037265 -0.0
  outer loop
    vertex 83.30997848490296 146.13924569933567 -1.000000000000003
    vertex 83.6324948130636 146.08959682304993 -3.1724622928663847e-15
    vertex 83.30997848490296 146.13924569933567 -3.1724622928663847e-15
  endloop
endfacet
facet normal 0.10884018182033219 -0.9940592612220447 -0.0
  outer loop
    vertex 83.30997848490296 146.13924569933567 -3.1724622928663847e-15
    vertex 82.98560155938198 146.1037294631018 -1.000000000000003
    vertex 83.30997848490296 146.13924569933567 -1.000000000000003
  endloop
endfacet
facet normal 0.10884018182033219 -0.9940592612220447 -0.0
  outer loop
    vertex 82.98560155938198 146.1037294631018 -1.000000000000003
    vertex 83.30997848490296 146.13924569933567 -3.1724622928663847e-15
    vertex 82.98560155938198 146.1037294631018 -3.1724622928663847e-15
  endloop
endfacet
facet normal 0.36241301132308334 -0.9320176013486734 -0.0
  outer loop
    vertex 82.98560155938198 146.1037294631018 -3.1724622928663847e-15
    vertex 82.68146978791671 145.9854684871543 -1.000000000000003
    vertex 82.98560155938198 146.1037294631018 -1.000000000000003
  endloop
endfacet
facet normal 0.36241301132308334 -0.9320176013486734 -0.0
  outer loop
    vertex 82.68146978791671 145.9854684871543 -1.000000000000003
    vertex 82.98560155938198 146.1037294631018 -3.1724622928663847e-15
    vertex 82.68146978791671 145.9854684871543 -3.1724622928663847e-15
  endloop
endfacet
facet normal 0.5912879930199303 -0.8064604821753282 -0.0
  outer loop
    vertex 82.68146978791671 145.9854684871543 -3.1724622928663847e-15
    vertex 82.41830924813098 145.7925220615685 -1.000000000000003
    vertex 82.68146978791671 145.9854684871543 -1.000000000000003
  endloop
endfacet
facet normal 0.5912879930199303 -0.8064604821753282 -0.0
  outer loop
    vertex 82.41830924813098 145.7925220615685 -1.000000000000003
    vertex 82.68146978791671 145.9854684871543 -3.1724622928663847e-15
    vertex 82.41830924813098 145.7925220615685 -3.1724622928663847e-15
  endloop
endfacet
facet normal 0.7798676751421152 -0.6259444138806834 -0.0
  outer loop
    vertex 82.41830924813098 145.7925220615685 -1.000000000000003
    vertex 82.21405389591784 145.53803916638898 -3.1724622928663847e-15
    vertex 82.21405389591784 145.53803916638898 -1.000000000000003
  endloop
endfacet
facet normal 0.7798676751421152 -0.6259444138806834 -0.0
  outer loop
    vertex 82.21405389591784 145.53803916638898 -3.1724622928663847e-15
    vertex 82.41830924813098 145.7925220615685 -1.000000000000003
    vertex 82.41830924813098 145.7925220615685 -3.1724622928663847e-15
  endloop
endfacet
facet normal 0.9153006639956549 -0.4027712682020819 -0.0
  outer loop
    vertex 82.21405389591784 145.53803916638898 -1.000000000000003
    vertex 82.0826233959827 145.2393623903694 -3.1724622928663847e-15
    vertex 82.0826233959827 145.2393623903694 -1.000000000000003
  endloop
endfacet
facet normal 0.9153006639956549 -0.4027712682020819 -0.0
  outer loop
    vertex 82.0826233959827 145.2393623903694 -3.1724622928663847e-15
    vertex 82.21405389591784 145.53803916638898 -1.000000000000003
    vertex 82.21405389591784 145.53803916638898 -3.1724622928663847e-15
  endloop
endfacet
facet normal 0.9883574252037265 -0.1521499262065557 -0.0
  outer loop
    vertex 82.0826233959827 145.2393623903694 -1.000000000000003
    vertex 82.03297451969694 144.91684606220875 -3.1724622928663847e-15
    vertex 82.03297451969694 144.91684606220875 -1.000000000000003
  endloop
endfacet
facet normal 0.9883574252037265 -0.1521499262065557 -0.0
  outer loop
    vertex 82.03297451969694 144.91684606220875 -3.1724622928663847e-15
    vertex 82.0826233959827 145.2393623903694 -1.000000000000003
    vertex 82.0826233959827 145.2393623903694 -3.1724622928663847e-15
  endloop
endfacet
facet normal 0.9940592612220451 0.10884018182032845 0.0
  outer loop
    vertex 82.03297451969694 144.91684606220875 -1.000000000000003
    vertex 82.0684907559308 144.59246913668775 -3.1724622928663847e-15
    vertex 82.0684907559308 144.59246913668775 -1.000000000000003
  endloop
endfacet
facet normal 0.9940592612220451 0.10884018182032845 0.0
  outer loop
    vertex 82.0684907559308 144.59246913668775 -3.1724622928663847e-15
    vertex 82.03297451969694 144.91684606220875 -1.000000000000003
    vertex 82.03297451969694 144.91684606220875 -3.1724622928663847e-15
  endloop
endfacet
facet normal 0.9320176013486852 0.3624130113230533 0.0
  outer loop
    vertex 82.0684907559308 144.59246913668775 -1.000000000000003
    vertex 82.18675173187829 144.28833736522247 -3.1724622928663847e-15
    vertex 82.18675173187829 144.28833736522247 -1.000000000000003
  endloop
endfacet
facet normal 0.9320176013486852 0.3624130113230533 0.0
  outer loop
    vertex 82.18675173187829 144.28833736522247 -3.1724622928663847e-15
    vertex 82.0684907559308 144.59246913668775 -1.000000000000003
    vertex 82.0684907559308 144.59246913668775 -3.1724622928663847e-15
  endloop
endfacet
facet normal 0.8064604821753117 0.5912879930199527 0.0
  outer loop
    vertex 82.18675173187829 144.28833736522247 -1.000000000000003
    vertex 82.37969815746412 144.02517682543674 -3.1724622928663847e-15
    vertex 82.37969815746412 144.02517682543674 -1.000000000000003
  endloop
endfacet
facet normal 0.8064604821753117 0.5912879930199527 0.0
  outer loop
    vertex 82.37969815746412 144.02517682543674 -3.1724622928663847e-15
    vertex 82.18675173187829 144.28833736522247 -1.000000000000003
    vertex 82.18675173187829 144.28833736522247 -3.1724622928663847e-15
  endloop
endfacet
facet normal 0.6259444138806625 0.7798676751421322 0.0
  outer loop
    vertex 82.37969815746412 144.02517682543674 -3.1724622928663847e-15
    vertex 82.63418105264364 143.82092147322362 -1.000000000000003
    vertex 82.37969815746412 144.02517682543674 -1.000000000000003
  endloop
endfacet
facet normal 0.6259444138806625 0.7798676751421322 0.0
  outer loop
    vertex 82.63418105264364 143.82092147322362 -1.000000000000003
    vertex 82.37969815746412 144.02517682543674 -3.1724622928663847e-15
    vertex 82.63418105264364 143.82092147322362 -3.1724622928663847e-15
  endloop
endfacet
facet normal -0.9142133033371261 -0.405233310577277 -0.0
  outer loop
    vertex 80.12341966447599 156.634472589728 -3.1724622928663847e-15
    vertex 80.59946171338939 155.56051355747442 -1.000000000000003
    vertex 80.59946171338939 155.56051355747442 -3.1724622928663847e-15
  endloop
endfacet
facet normal -0.9142133033371261 -0.405233310577277 -0.0
  outer loop
    vertex 80.59946171338939 155.56051355747442 -1.000000000000003
    vertex 80.12341966447599 156.634472589728 -3.1724622928663847e-15
    vertex 80.12341966447599 156.634472589728 -1.000000000000003
  endloop
endfacet
facet normal -0.7781801419430299 -0.628041134548945 -0.0
  outer loop
    vertex 79.38563730382387 157.54862860682974 -3.1724622928663847e-15
    vertex 80.12341966447599 156.634472589728 -1.000000000000003
    vertex 80.12341966447599 156.634472589728 -3.1724622928663847e-15
  endloop
endfacet
facet normal -0.7781801419430299 -0.628041134548945 -0.0
  outer loop
    vertex 80.12341966447599 156.634472589728 -1.000000000000003
    vertex 79.38563730382387 157.54862860682974 -3.1724622928663847e-15
    vertex 79.38563730382387 157.54862860682974 -1.000000000000003
  endloop
endfacet
facet normal -0.5891152898789982 -0.8080489930881567 -0.0
  outer loop
    vertex 79.38563730382387 157.54862860682974 -3.1724622928663847e-15
    vertex 78.43639328006849 158.2406833869284 -1.000000000000003
    vertex 79.38563730382387 157.54862860682974 -1.000000000000003
  endloop
endfacet
facet normal -0.5891152898789982 -0.8080489930881567 -0.0
  outer loop
    vertex 78.43639328006849 158.2406833869284 -1.000000000000003
    vertex 79.38563730382387 157.54862860682974 -3.1724622928663847e-15
    vertex 78.43639328006849 158.2406833869284 -3.1724622928663847e-15
  endloop
endfacet
facet normal -0.35990320436877854 -0.9329896481124993 -0.0
  outer loop
    vertex 78.43639328006849 158.2406833869284 -3.1724622928663847e-15
    vertex 77.34037700472882 158.66347454043486 -1.000000000000003
    vertex 78.43639328006849 158.2406833869284 -1.000000000000003
  endloop
endfacet
facet normal -0.35990320436877854 -0.9329896481124993 -0.0
  outer loop
    vertex 77.34037700472882 158.66347454043486 -1.000000000000003
    vertex 78.43639328006849 158.2406833869284 -3.1724622928663847e-15
    vertex 77.34037700472882 158.66347454043486 -3.1724622928663847e-15
  endloop
endfacet
facet normal -0.1061643102489734 -0.9943486004562785 -0.0
  outer loop
    vertex 77.34037700472882 158.66347454043486 -3.1724622928663847e-15
    vertex 76.17228017571676 158.78818954893308 -1.000000000000003
    vertex 77.34037700472882 158.66347454043486 -1.000000000000003
  endloop
endfacet
facet normal -0.1061643102489734 -0.9943486004562785 -0.0
  outer loop
    vertex 76.17228017571676 158.78818954893308 -1.000000000000003
    vertex 77.34037700472882 158.66347454043486 -3.1724622928663847e-15
    vertex 76.17228017571676 158.78818954893308 -3.1724622928663847e-15
  endloop
endfacet
facet normal 0.15480950616946906 -0.9879443389177173 -0.0
  outer loop
    vertex 76.17228017571676 158.78818954893308 -3.1724622928663847e-15
    vertex 75.0117066615582 158.60632929069516 -1.000000000000003
    vertex 76.17228017571676 158.78818954893308 -1.000000000000003
  endloop
endfacet
facet normal 0.15480950616946906 -0.9879443389177173 -0.0
  outer loop
    vertex 75.0117066615582 158.60632929069516 -1.000000000000003
    vertex 76.17228017571676 158.78818954893308 -3.1724622928663847e-15
    vertex 75.0117066615582 158.60632929069516 -3.1724622928663847e-15
  endloop
endfacet
facet normal 0.405233310577277 -0.9142133033371261 -0.0
  outer loop
    vertex 75.0117066615582 158.60632929069516 -3.1724622928663847e-15
    vertex 73.9377476293046 158.13028724178176 -1.000000000000003
    vertex 75.0117066615582 158.60632929069516 -1.000000000000003
  endloop
endfacet
facet normal 0.405233310577277 -0.9142133033371261 -0.0
  outer loop
    vertex 73.9377476293046 158.13028724178176 -1.000000000000003
    vertex 75.0117066615582 158.60632929069516 -3.1724622928663847e-15
    vertex 73.9377476293046 158.13028724178176 -3.1724622928663847e-15
  endloop
endfacet
facet normal 0.628041134548945 -0.7781801419430299 -0.0
  outer loop
    vertex 73.9377476293046 158.13028724178176 -3.1724622928663847e-15
    vertex 73.02359161220285 157.39250488112967 -1.000000000000003
    vertex 73.9377476293046 158.13028724178176 -1.000000000000003
  endloop
endfacet
facet normal 0.628041134548945 -0.7781801419430299 -0.0
  outer loop
    vertex 73.02359161220285 157.39250488112967 -1.000000000000003
    vertex 73.9377476293046 158.13028724178176 -3.1724622928663847e-15
    vertex 73.02359161220285 157.39250488112967 -3.1724622928663847e-15
  endloop
endfacet
facet normal 0.8080489930881521 -0.5891152898790045 -0.0
  outer loop
    vertex 73.02359161220285 157.39250488112967 -1.000000000000003
    vertex 72.33153683210419 156.44326085737427 -3.1724622928663847e-15
    vertex 72.33153683210419 156.44326085737427 -1.000000000000003
  endloop
endfacet
facet normal 0.8080489930881521 -0.5891152898790045 -0.0
  outer loop
    vertex 72.33153683210419 156.44326085737427 -3.1724622928663847e-15
    vertex 73.02359161220285 157.39250488112967 -1.000000000000003
    vertex 73.02359161220285 157.39250488112967 -3.1724622928663847e-15
  endloop
endfacet
facet normal 0.9329896481125012 -0.3599032043687734 -0.0
  outer loop
    vertex 72.33153683210419 156.44326085737427 -1.000000000000003
    vertex 71.90874567859773 155.34724458203462 -3.1724622928663847e-15
    vertex 71.90874567859773 155.34724458203462 -1.000000000000003
  endloop
endfacet
facet normal 0.9329896481125012 -0.3599032043687734 -0.0
  outer loop
    vertex 71.90874567859773 155.34724458203462 -3.1724622928663847e-15
    vertex 72.33153683210419 156.44326085737427 -1.000000000000003
    vertex 72.33153683210419 156.44326085737427 -3.1724622928663847e-15
  endloop
endfacet
facet normal 0.9943486004562785 -0.1061643102489734 -0.0
  outer loop
    vertex 71.90874567859773 155.34724458203462 -1.000000000000003
    vertex 71.78403067009953 154.17914775302256 -3.1724622928663847e-15
    vertex 71.78403067009953 154.17914775302256 -1.000000000000003
  endloop
endfacet
facet normal 0.9943486004562785 -0.1061643102489734 -0.0
  outer loop
    vertex 71.78403067009953 154.17914775302256 -3.1724622928663847e-15
    vertex 71.90874567859773 155.34724458203462 -1.000000000000003
    vertex 71.90874567859773 155.34724458203462 -3.1724622928663847e-15
  endloop
endfacet
facet normal 0.9879443389177175 0.1548095061694676 0.0
  outer loop
    vertex 71.78403067009953 154.17914775302256 -1.000000000000003
    vertex 71.96589092833744 153.01857423886398 -3.1724622928663847e-15
    vertex 71.96589092833744 153.01857423886398 -1.000000000000003
  endloop
endfacet
facet normal 0.9879443389177175 0.1548095061694676 0.0
  outer loop
    vertex 71.96589092833744 153.01857423886398 -3.1724622928663847e-15
    vertex 71.78403067009953 154.17914775302256 -1.000000000000003
    vertex 71.78403067009953 154.17914775302256 -3.1724622928663847e-15
  endloop
endfacet
facet normal 0.9142133033371261 0.405233310577277 0.0
  outer loop
    vertex 71.96589092833744 153.01857423886398 -1.000000000000003
    vertex 72.44193297725084 151.9446152066104 -3.1724622928663847e-15
    vertex 72.44193297725084 151.9446152066104 -1.000000000000003
  endloop
endfacet
facet normal 0.9142133033371261 0.405233310577277 0.0
  outer loop
    vertex 72.44193297725084 151.9446152066104 -3.1724622928663847e-15
    vertex 71.96589092833744 153.01857423886398 -1.000000000000003
    vertex 71.96589092833744 153.01857423886398 -3.1724622928663847e-15
  endloop
endfacet
facet normal 0.7781801419430299 0.628041134548945 0.0
  outer loop
    vertex 72.44193297725084 151.9446152066104 -1.000000000000003
    vertex 73.17971533790295 151.03045918950863 -3.1724622928663847e-15
    vertex 73.17971533790295 151.03045918950863 -1.000000000000003
  endloop
endfacet
facet normal 0.7781801419430299 0.628041134548945 0.0
  outer loop
    vertex 73.17971533790295 151.03045918950863 -3.1724622928663847e-15
    vertex 72.44193297725084 151.9446152066104 -1.000000000000003
    vertex 72.44193297725084 151.9446152066104 -3.1724622928663847e-15
  endloop
endfacet
facet normal 0.5891152898789982 0.8080489930881567 0.0
  outer loop
    vertex 73.17971533790295 151.03045918950863 -3.1724622928663847e-15
    vertex 74.12895936165835 150.33840440940997 -1.000000000000003
    vertex 73.17971533790295 151.03045918950863 -1.000000000000003
  endloop
endfacet
facet normal 0.5891152898789982 0.8080489930881567 0.0
  outer loop
    vertex 74.12895936165835 150.33840440940997 -1.000000000000003
    vertex 73.17971533790295 151.03045918950863 -3.1724622928663847e-15
    vertex 74.12895936165835 150.33840440940997 -3.1724622928663847e-15
  endloop
endfacet
facet normal 0.35990320436877854 0.9329896481124993 0.0
  outer loop
    vertex 74.12895936165835 150.33840440940997 -3.1724622928663847e-15
    vertex 75.22497563699801 149.9156132559035 -1.000000000000003
    vertex 74.12895936165835 150.33840440940997 -1.000000000000003
  endloop
endfacet
facet normal 0.35990320436877854 0.9329896481124993 0.0
  outer loop
    vertex 75.22497563699801 149.9156132559035 -1.000000000000003
    vertex 74.12895936165835 150.33840440940997 -3.1724622928663847e-15
    vertex 75.22497563699801 149.9156132559035 -3.1724622928663847e-15
  endloop
endfacet
facet normal 0.1061643102489734 0.9943486004562785 0.0
  outer loop
    vertex 75.22497563699801 149.9156132559035 -3.1724622928663847e-15
    vertex 76.39307246601005 149.79089824740532 -1.000000000000003
    vertex 75.22497563699801 149.9156132559035 -1.000000000000003
  endloop
endfacet
facet normal 0.1061643102489734 0.9943486004562785 0.0
  outer loop
    vertex 76.39307246601005 149.79089824740532 -1.000000000000003
    vertex 75.22497563699801 149.9156132559035 -3.1724622928663847e-15
    vertex 76.39307246601005 149.79089824740532 -3.1724622928663847e-15
  endloop
endfacet
facet normal -0.15480950616946906 0.9879443389177173 -0.0
  outer loop
    vertex 76.39307246601005 149.79089824740532 -3.1724622928663847e-15
    vertex 77.55364598016862 149.9727585056432 -1.000000000000003
    vertex 76.39307246601005 149.79089824740532 -1.000000000000003
  endloop
endfacet
facet normal -0.15480950616946906 0.9879443389177173 -0.0
  outer loop
    vertex 77.55364598016862 149.9727585056432 -1.000000000000003
    vertex 76.39307246601005 149.79089824740532 -3.1724622928663847e-15
    vertex 77.55364598016862 149.9727585056432 -3.1724622928663847e-15
  endloop
endfacet
facet normal -0.405233310577277 0.9142133033371261 -0.0
  outer loop
    vertex 77.55364598016862 149.9727585056432 -3.1724622928663847e-15
    vertex 78.62760501242222 150.4488005545566 -1.000000000000003
    vertex 77.55364598016862 149.9727585056432 -1.000000000000003
  endloop
endfacet
facet normal -0.405233310577277 0.9142133033371261 -0.0
  outer loop
    vertex 78.62760501242222 150.4488005545566 -1.000000000000003
    vertex 77.55364598016862 149.9727585056432 -3.1724622928663847e-15
    vertex 78.62760501242222 150.4488005545566 -3.1724622928663847e-15
  endloop
endfacet
facet normal -0.628041134548945 0.7781801419430299 -0.0
  outer loop
    vertex 78.62760501242222 150.4488005545566 -3.1724622928663847e-15
    vertex 79.54176102952397 151.18658291520873 -1.000000000000003
    vertex 78.62760501242222 150.4488005545566 -1.000000000000003
  endloop
endfacet
facet normal -0.628041134548945 0.7781801419430299 -0.0
  outer loop
    vertex 79.54176102952397 151.18658291520873 -1.000000000000003
    vertex 78.62760501242222 150.4488005545566 -3.1724622928663847e-15
    vertex 79.54176102952397 151.18658291520873 -3.1724622928663847e-15
  endloop
endfacet
facet normal -0.8080489930881521 0.5891152898790045 -0.0
  outer loop
    vertex 80.23381580962264 152.13582693896413 -3.1724622928663847e-15
    vertex 79.54176102952397 151.18658291520873 -1.000000000000003
    vertex 79.54176102952397 151.18658291520873 -3.1724622928663847e-15
  endloop
endfacet
facet normal -0.8080489930881521 0.5891152898790045 -0.0
  outer loop
    vertex 79.54176102952397 151.18658291520873 -1.000000000000003
    vertex 80.23381580962264 152.13582693896413 -3.1724622928663847e-15
    vertex 80.23381580962264 152.13582693896413 -1.000000000000003
  endloop
endfacet
facet normal -0.9329896481125012 0.3599032043687734 -0.0
  outer loop
    vertex 80.6566069631291 153.23184321430378 -3.1724622928663847e-15
    vertex 80.23381580962264 152.13582693896413 -1.000000000000003
    vertex 80.23381580962264 152.13582693896413 -3.1724622928663847e-15
  endloop
endfacet
facet normal -0.9329896481125012 0.3599032043687734 -0.0
  outer loop
    vertex 80.23381580962264 152.13582693896413 -1.000000000000003
    vertex 80.6566069631291 153.23184321430378 -3.1724622928663847e-15
    vertex 80.6566069631291 153.23184321430378 -1.000000000000003
  endloop
endfacet
facet normal -0.9943486004562785 0.1061643102489734 -0.0
  outer loop
    vertex 80.78132197162729 154.39994004331584 -3.1724622928663847e-15
    vertex 80.6566069631291 153.23184321430378 -1.000000000000003
    vertex 80.6566069631291 153.23184321430378 -3.1724622928663847e-15
  endloop
endfacet
facet normal -0.9943486004562785 0.1061643102489734 -0.0
  outer loop
    vertex 80.6566069631291 153.23184321430378 -1.000000000000003
    vertex 80.78132197162729 154.39994004331584 -3.1724622928663847e-15
    vertex 80.78132197162729 154.39994004331584 -1.000000000000003
  endloop
endfacet
facet normal -0.9879443389177175 -0.1548095061694676 -0.0
  outer loop
    vertex 80.59946171338939 155.56051355747442 -3.1724622928663847e-15
    vertex 80.78132197162729 154.39994004331584 -1.000000000000003
    vertex 80.78132197162729 154.39994004331584 -3.1724622928663847e-15
  endloop
endfacet
facet normal -0.9879443389177175 -0.1548095061694676 -0.0
  outer loop
    vertex 80.78132197162729 154.39994004331584 -1.000000000000003
    vertex 80.59946171338939 155.56051355747442 -3.1724622928663847e-15
    vertex 80.59946171338939 155.56051355747442 -1.000000000000003
  endloop
endfacet
endsolid camera_top
